<svg xmlns="http://www.w3.org/2000/svg" viewBox="0 0 64 64" fill="none">
  <defs>
    <linearGradient id="bg" x1="0" y1="0" x2="64" y2="64" gradientUnits="userSpaceOnUse">
      <stop offset="0" stop-color="#8b5cf6"/>
      <stop offset="1" stop-color="#06b6d4"/>
    </linearGradient>
    <linearGradient id="plane" x1="32" y1="10" x2="56" y2="34" gradientUnits="userSpaceOnUse">
      <stop offset="0" stop-color="#a78bfa"/>
      <stop offset="1" stop-color="#22d3ee"/>
    </linearGradient>
  </defs>
  <rect width="64" height="64" rx="14" fill="url(#bg)"/>
  <path d="M14 22c0-2.2 1.8-4 4-4h28c2.2 0 4 1.8 4 4v20c0 2.2-1.8 4-4 4H18c-2.2 0-4-1.8-4-4V22z" fill="white" fill-opacity="0.95"/>
  <path d="M14 22l18 12 18-12" stroke="#8b5cf6" stroke-width="2.5" stroke-linecap="round" stroke-linejoin="round" fill="none"/>
  <path d="M50 12l8 4-22 8 4-8 10-4z" fill="url(#plane)" stroke="white" stroke-width="1.5" stroke-linejoin="round"/>
  <path d="M40 24l-4 8" stroke="white" stroke-width="1.5" stroke-linecap="round"/>
</svg>
